#!OML:ASF Y:\EmotionMaleHayes\Project 1\Capture day 1\Session 1\Male1.ASF
:FULLY-SPECIFIED
:DEGREES
504
root 47.1135 17.1353 -2.02277 914.368 91.4991 920.218
lowerback 4.03573 3.33416 -1.87223
upperback 1.33582 4.38628 -0.259067
thorax -1.00484 2.20044 0.564056
lowerneck -21.3497 -1.07295 0.513461
upperneck 27.2836 -1.95615 1.85227
head 12.6485 -0.410787 0.323417
rclavicle 1.9953e-014 -9.93923e-016
rhumerus -15.1845 6.71106 -82.4167
rradius 45.1266
rwrist -7.27351
rhand -14.3757 -32.7183
rfingers 7.12502
rthumb 11.7668 -62.3678
lclavicle 1.9953e-014 -9.93923e-016
lhumerus -42.7199 3.05918 82.7144
lradius 15.8778
lwrist -39.9882
lhand -0.974105 -26.5116
lfingers 7.12502
lthumb 24.657 1.91995
rfemur 12.7613 2.68229 19.293
rtibia 8.46684
rfoot -16.0214 1.8141
rtoes 9.53684
lfemur 3.41643 3.31427 -20.5589
ltibia 11.5672
lfoot -10.0335 8.77025
ltoes -1.05388
505
root 47.1733 17.144 -2.03833 905.374 91.6651 911.203
lowerback 3.90935 3.37766 -1.65869
upperback 1.28013 4.4534 -0.249871
thorax -0.977868 2.23352 0.457915
lowerneck -21.107 -1.04994 0.374494
upperneck 27.0216 -1.94418 2.09707
head 12.4989 -0.393106 0.441651
rclavicle 9.44848e-015 -5.76476e-015
rhumerus -15.8382 6.61206 -82.8144
rradius 45.027
rwrist -7.19929
rhand -14.5125 -32.8388
rfingers 7.12502
rthumb 11.6349 -62.4958
lclavicle 9.44848e-015 -5.76476e-015
lhumerus -41.9621 3.40226 82.3315
lradius 15.934
lwrist -41.0866
lhand -1.08639 -26.3468
lfingers 7.12502
lthumb 24.5494 2.09933
rfemur 12.7862 2.71033 19.4908
rtibia 8.68403
rfoot -16.3117 1.85517
rtoes 8.80945
lfemur 4.01093 3.35359 -20.3547
ltibia 10.8804
lfoot -9.91967 8.92932
ltoes -1.64191
506
root 47.2422 17.1555 -2.05842 899.31 91.325 905.102
lowerback 3.65695 3.24024 -1.40033
upperback 1.26287 4.2835 -0.260218
thorax -0.831746 2.14767 0.328303
lowerneck -21.3264 -1.06292 0.514194
upperneck 27.1714 -1.93289 1.81396
head 12.5978 -0.409629 0.311673
rclavicle -1.56543e-015 -1.98785e-015
rhumerus -16.374 6.59774 -83.1777
rradius 44.7333
rwrist -7.31291
rhand -14.3676 -33.0568
rfingers 7.12502
rthumb 11.7747 -62.7058
lclavicle -1.56543e-015 -1.98785e-015
lhumerus -41.1823 2.91524 82.5324
lradius 16.0621
lwrist -40.7641
lhand -1.31016 -26.1227
lfingers 7.12502
lthumb 24.3349 2.35242
rfemur 13.0224 2.32489 19.5594
rtibia 8.75341
rfoot -16.5424 1.90383
rtoes 8.37153
lfemur 4.56156 3.03036 -20.2939
ltibia 10.2237
lfoot -9.88412 8.76834
ltoes -1.19476
507
root 47.2883 17.1606 -2.07632 900.962 91.4453 906.719
lowerback 3.58116 3.25389 -1.42708
upperback 1.25222 4.30145 -0.323928
thorax -0.797749 2.15659 0.281725
lowerneck -21.4327 -0.944133 0.667822
upperneck 27.1613 -1.77283 1.65417
head 12.6103 -0.346013 0.250867
rclavicle -5.84551e-015 6.75868e-015
rhumerus -16.8614 6.5202 -83.5544
rradius 44.496
rwrist -7.37631
rhand -14.064 -33.1119
rfingers 7.12502
rthumb 12.0674 -62.7439
lclavicle -5.84551e-015 6.75868e-015
lhumerus -40.3013 1.62099 83.2571
lradius 16.1712
lwrist -39.0872
lhand -1.42668 -25.6943
lfingers 7.12502
lthumb 24.2232 2.79581
rfemur 12.9126 2.38557 19.4338
rtibia 9.20624
rfoot -16.6867 1.94979
rtoes 7.92894
lfemur 5.01403 3.08307 -20.4058
ltibia 9.64318
lfoot -9.85105 8.72588
ltoes -0.324749
508
root 47.3389 17.1641 -2.08752 909.351 91.6844 915.131
lowerback 3.64604 3.30216 -1.79827
upperback 1.15956 4.34899 -0.41032
thorax -0.950377 2.18135 0.388941
lowerneck -21.7614 -0.95409 0.704216
upperneck 27.412 -1.80192 1.62995
head 12.7782 -0.35217 0.230644
rclavicle -8.44835e-015 2.18663e-014
rhumerus -17.6339 6.50337 -83.9543
rradius 44.3923
rwrist -7.34689
rhand -13.8612 -32.9298
rfingers 7.12502
rthumb 12.263 -62.5502
lclavicle -8.44835e-015 2.18663e-014
lhumerus -39.5907 0.692305 83.7044
lradius 16.2627
lwrist -37.8741
lhand -1.69321 -25.308
lfingers 7.12502
lthumb 23.9676 3.2159
rfemur 12.9026 2.79492 19.1921
rtibia 9.57237
rfoot -16.893 1.75182
rtoes 8.25938
lfemur 5.57015 3.30049 -20.6513
ltibia 9.00306
lfoot -9.83329 8.74552
ltoes 0.440031
509
root 47.3872 17.165 -2.10486 924.792 91.9511 930.581
lowerback 3.6294 3.33572 -2.35217
upperback 1.15536 4.37434 -0.566747
thorax -0.97464 2.19516 0.535202
lowerneck -21.6512 -0.843583 0.75859
upperneck 27.2607 -1.60167 1.43753
head 12.6901 -0.289836 0.18099
rclavicle -1.19084e-014 -1.19271e-015
rhumerus -18.2341 6.52043 -84.2233
rradius 44.1983
rwrist -7.33864
rhand -13.5417 -33.0261
rfingers 7.12502
rthumb 12.571 -62.6279
lclavicle -1.19084e-014 -1.19271e-015
lhumerus -38.745 1.0964 83.4203
lradius 16.4168
lwrist -38.3481
lhand -1.96295 -25.233
lfingers 7.12502
lthumb 23.7089 3.32467
rfemur 12.8305 2.55061 18.2719
rtibia 9.9988
rfoot -17.0772 2.09927
rtoes 7.48325
lfemur 6.08037 3.458 -21.3453
ltibia 8.37936
lfoot -9.76272 8.77755
ltoes 0.447092
510
root 47.4302 17.1622 -2.11718 927.912 92.1068 933.722
lowerback 3.93325 3.37218 -2.57968
upperback 0.954571 4.39869 -0.617216
thorax -1.36401 2.21176 0.58052
lowerneck -21.476 -0.715011 0.966818
upperneck 27.2518 -1.38678 1.12363
head 12.6448 -0.216407 0.0624873
rclavicle 7.26806e-015 1.11319e-014
rhumerus -19.0932 6.42209 -84.5333
rradius 43.9555
rwrist -7.22809
rhand -12.9001 -33.1872
rfingers 7.12502
rthumb 13.1895 -62.75
lclavicle 7.26806e-015 1.11319e-014
lhumerus -38.3115 2.11203 82.7526
lradius 16.8359
lwrist -39.4712
lhand -2.76794 -25.4983
lfingers 7.12502
lthumb 22.9367 3.1573
rfemur 12.8553 2.66441 18.0274
rtibia 10.2453
rfoot -17.3624 1.97373
rtoes 5.52644
lfemur 6.5505 3.63513 -21.5128
ltibia 7.85314
lfoot -9.59221 8.73425
ltoes 0.93549
511
root 47.4764 17.1573 -2.1272 917.639 92.1804 923.553
lowerback 3.85672 3.41156 -2.37773
upperback 1.07059 4.46552 -0.487424
thorax -1.19925 2.24257 0.607312
lowerneck -21.5615 -0.659363 0.936198
upperneck 27.1594 -1.26803 1.01197
head 12.6236 -0.186653 0.0439582
rclavicle 1.73688e-014 2.78299e-015
rhumerus -19.4379 6.38759 -84.7789
rradius 43.5885
rwrist -7.09006
rhand -12.3782 -33.0305
rfingers 7.12502
rthumb 13.6925 -62.56
lclavicle 1.73688e-014 2.78299e-015
lhumerus -37.4182 2.31509 82.7112
lradius 17.1868
lwrist -39.2512
lhand -5.12224 -25.9186
lfingers 7.12502
lthumb 20.676 3.00005
rfemur 12.8427 2.9909 18.4799
rtibia 10.6959
rfoot -17.7885 1.71586
rtoes 4.67409
lfemur 7.16311 3.82581 -21.0075
ltibia 7.29847
lfoot -9.40111 8.71546
ltoes 2.01617
512
root 47.5258 17.1529 -2.14774 928.627 92.3942 934.501
lowerback 3.73341 3.39354 -2.83971
upperback 1.05365 4.42729 -0.639567
thorax -1.16925 2.22467 0.716652
lowerneck -21.577 -0.581612 1.08391
upperneck 27.1311 -1.12924 0.746002
head 12.6118 -0.14828 -0.0597555
rclavicle 1.36664e-016 6.75868e-015
rhumerus -20.0158 6.46037 -85.0827
rradius 43.2577
rwrist -6.96697
rhand -12.1153 -32.6464
rfingers 7.12502
rthumb 13.9459 -62.1587
lclavicle 1.36664e-016 6.75868e-015
lhumerus -36.7311 1.57895 83.1155
lradius 17.6775
lwrist -37.4608
lhand -6.84579 -26.0309
lfingers 7.12502
lthumb 19.0191 3.05918
rfemur 12.7733 2.58181 17.5957
rtibia 11.1036
rfoot -18.0457 2.0844
rtoes 3.9177
lfemur 7.55281 3.96953 -21.6874
ltibia 6.8014
lfoot -9.22626 8.60649
ltoes 1.93368
513
root 47.5697 17.1438 -2.16337 942.44 92.9048 948.354
lowerback 3.7542 3.35424 -3.75333
upperback 1.06928 4.34159 -0.838133
thorax -1.21315 2.18537 1.02228
lowerneck -21.7111 -0.464494 1.25125
upperneck 27.0942 -0.916769 0.38191
head 12.6208 -0.0904485 -0.192463
rclavicle 1.67725e-014 7.95139e-015
rhumerus -20.4846 6.85984 -85.3799
rradius 42.8102
rwrist -6.91513
rhand -11.6758 -32.3021
rfingers 7.12502
rthumb 14.3694 -61.7847
lclavicle 1.67725e-014 7.95139e-015
lhumerus -36.1107 1.15915 83.393
lradius 18.5187
lwrist -35.2106
lhand -6.87622 -25.8257
lfingers 7.12502
lthumb 18.9899 3.26727
rfemur 12.8106 2.45549 16.4528
rtibia 11.4674
rfoot -18.2592 2.28579
rtoes 3.42064
lfemur 7.97781 4.12439 -22.7202
ltibia 6.29758
lfoot -9.12795 8.50473
ltoes 1.59653
